PathFileType	4	(X/Y/Z)	C:\Users\WrightLab\Desktop\Jo\P4V110.trc
DataRate	CameraRate	NumFrames	NumMarkers	Units	OrigDataRate	OrigDataStartFrame	OrigNumFrames
100.00	100.00	       29	19	mm	100.00	80	       633
Frame#	Time	Headset_Front			Headset_Back			Headset_Left			Headset_Right			Left_Shoulder			Right_Shoulder			Sternum			C7			Left Elbow			Right Elbow			Left Wrist			Right Wrist			Left ASIS			Right ASIS			S2			Left Knee			Right Knee			Left Ankle			Right Ankle			
		X1	Y1	Z1	X2	Y2	Z2	X3	Y3	Z3	X4	Y4	Z4	X5	Y5	Z5	X6	Y6	Z6	X7	Y7	Z7	X8	Y8	Z8	X9	Y9	Z9	X10	Y10	Z10	X11	Y11	Z11	X12	Y12	Z12	X13	Y13	Z13	X14	Y14	Z14	X15	Y15	Z15	X16	Y16	Z16	X17	Y17	Z17	X18	Y18	Z18	X19	Y19	Z19	

80	0.790																									223.93044	1142.96033	-1558.49756				190.80750	861.05756	-1422.14636				110.63350	1000.92279	-1497.02124							92.26617	508.76718	-1531.41736	-238.63480	515.20441	-1514.33435							
81	0.800																									226.28481	1142.70251	-1565.65527				193.78227	858.62244	-1433.23120				110.72118	1000.87848	-1496.14185							92.26478	508.49777	-1531.40430	-238.63377	515.07544	-1514.29797							
82	0.810																									229.09950	1141.33484	-1569.92957				196.51686	856.34827	-1443.23083				110.76517	1000.83191	-1495.69922							92.25109	508.25406	-1531.51648	-238.62733	515.00177	-1514.23608							
83	0.820																									231.45570	1142.15869	-1578.41382				200.00819	854.46094	-1452.44409				109.94311	1000.03613	-1491.69629							91.55496	508.02869	-1529.99768	-238.58972	514.97192	-1513.96460							
84	0.830																									233.52272	1142.52942	-1585.37866				203.04779	854.07538	-1462.62610				110.00316	1000.08771	-1491.09814							91.55441	507.77652	-1529.97534	-239.40128	516.01862	-1510.74243							
85	0.840																									235.92294	1141.52393	-1589.16589				205.84792	854.05579	-1472.07007				110.10031	1000.22137	-1490.13135							91.52432	507.46390	-1530.24268	-239.41499	515.18060	-1510.42432							
86	0.850																									237.43547	1143.46863	-1598.22363				209.63249	852.86658	-1486.12061				110.18570	1000.39099	-1489.28271							92.03880	506.23547	-1531.43652	-240.07690	515.68567	-1507.85803							
87	0.860																									238.63245	1144.15723	-1604.17871				212.38866	854.83649	-1488.96179				110.25609	1000.50262	-1488.58240							91.42822	506.34677	-1529.23560	-240.93530	515.50970	-1504.77246							
88	0.870																									239.93834	1145.08325	-1609.84082				216.17262	855.10687	-1496.32446				110.32520	1000.60736	-1487.89453							91.57214	505.62140	-1529.06958	-240.91560	515.39227	-1504.60840							
89	0.880																									241.35896	1146.26062	-1615.13062				219.38925	856.25421	-1504.09656				109.74805	1000.75659	-1485.41187	-226.79909	1007.94910	-1472.05066				91.66567	505.76227	-1528.14294	-240.93619	515.11792	-1504.69006							
90	0.890																									241.83632	1147.73364	-1620.23767				222.56183	857.37115	-1511.59729				108.69049	1000.92206	-1481.48804	-226.85196	1007.73920	-1472.37695				91.45791	505.52298	-1526.37939	-240.98201	514.83582	-1504.94617							
91	0.900																									242.56430	1149.54272	-1625.04785				226.47348	854.45520	-1527.54529				108.68967	1000.18689	-1480.99512	-226.93904	1007.49518	-1472.93225				92.17151	504.65717	-1527.17883	-242.21193	515.13251	-1501.26001							
92	0.910																									242.42197	1150.86731	-1628.73450				228.82481	857.92383	-1524.00659				108.70206	1000.11078	-1480.87097	-227.01700	1007.24921	-1473.42432				92.22255	504.75150	-1526.67517	-243.38350	515.61279	-1497.41211							
93	0.920																									242.23441	1152.60913	-1632.44165				231.92429	856.11646	-1540.21814				107.75805	1000.87665	-1477.82166	-227.09990	1007.08295	-1473.96460				92.00661	503.97812	-1524.86121	-243.57770	514.43732	-1497.34607							
94	0.930																									242.26509	1153.85486	-1634.67822				234.21596	859.38013	-1536.41235				107.59766	999.87885	-1477.61743	-228.74280	1006.95972	-1469.53345				92.01211	503.93146	-1524.80127	-244.53764	514.23779	-1494.69312							
95	0.940																									241.35356	1154.66650	-1635.97510				236.62831	855.93158	-1552.90198				106.71972	1000.39215	-1475.20801	-229.82690	1006.65363	-1467.96118				92.07294	504.09802	-1524.20752	-246.11687	514.27130	-1489.45288							
96	0.950																									240.22459	1156.73669	-1639.21069				238.34598	859.08667	-1546.64111				105.54410	1000.03693	-1472.48010	-230.31067	1005.85992	-1471.13440				91.46791	504.35626	-1521.83630	-246.14244	513.84332	-1489.53162							
97	0.960																									239.35754	1157.17188	-1638.78809				240.00159	855.17804	-1562.96802				104.85463	999.62262	-1471.13074	-231.68532	1005.82245	-1471.85889				91.51389	504.44550	-1521.38452	-248.33072	515.23914	-1480.75793							
98	0.970																									238.48904	1158.43506	-1639.51880				241.27451	854.11438	-1566.91345				104.64266	998.70691	-1473.20093	-232.09250	1005.18750	-1474.53174				91.59345	504.62531	-1520.60522	-249.33498	515.06171	-1477.53076							
99	0.980																									237.54649	1160.09827	-1640.82129				242.94942	852.39673	-1571.94080				103.73528	997.70789	-1473.98560	-232.43555	1004.56201	-1476.76831				91.58678	504.61816	-1520.67139	-250.99593	514.08374	-1472.47144							
100	0.990																									237.17351	1160.39795	-1639.01184				243.48764	852.38983	-1574.28284				101.46200	997.61505	-1471.03943	-235.15663	1006.63763	-1469.73645				91.55979	504.50882	-1520.93079	-252.47792	514.94482	-1469.45996							
101	1.000																									236.50488	1160.20203	-1635.85193				243.42065	852.05817	-1575.12964				100.23763	997.27185	-1469.01379	-236.14415	1007.20221	-1467.92908				90.80179	504.32986	-1520.05078	-255.08232	517.02124	-1462.44153							
102	1.010																									236.20927	1159.22644	-1630.85364				242.77507	851.60114	-1574.13989				100.04247	996.74280	-1470.91479	-236.36082	1006.91833	-1469.35339				90.68700	503.97791	-1521.16418	-255.77429	517.43817	-1461.47192							
103	1.020																									235.03395	1159.92041	-1628.87524				242.63403	851.05670	-1575.91211				98.45480	997.55890	-1468.09644	-237.46744	1007.39703	-1468.34326				89.08442	504.99243	-1518.16736	-258.22247	518.45563	-1454.59192							
104	1.030																									233.73849	1158.76355	-1622.82751				241.15552	850.03528	-1576.24927				96.67330	997.76904	-1464.47888	-237.83580	1006.87054	-1470.75403				88.06567	505.33539	-1516.89526	-259.16672	518.89178	-1452.99304							
105	1.040																									233.07784	1159.33154	-1619.46667				239.81581	847.98676	-1579.59241				95.67651	998.08380	-1462.96277	-240.93576	1008.38165	-1466.25195				87.35387	504.80402	-1516.30090	-261.95087	521.20264	-1444.20728							
106	1.050																									233.05023	1158.54651	-1613.05371				238.36807	845.96558	-1581.64026				93.57939	998.51624	-1458.39087	-242.46701	1008.25677	-1468.01465				86.38443	506.26120	-1514.82983	-262.98825	521.80231	-1442.60193							
107	1.060																									232.30843	1157.70422	-1606.15662				235.95937	845.86676	-1577.70532				92.82423	998.13818	-1457.71472	-242.85802	1007.70667	-1470.56201				85.68507	506.24942	-1513.54089	-264.97131	522.59467	-1439.77856							
108	1.070																									230.92162	1158.80481	-1602.88416				233.47647	845.80951	-1573.77002				92.08057	997.78192	-1456.92834	-243.99350	1008.06744	-1469.72925				85.10081	506.90115	-1512.87097	-268.10406	525.17432	-1434.24048							
